<?xml version="1.0" encoding="iso-8859-1"?>
<!-- Generator: Adobe Illustrator 19.0.0, SVG Export Plug-In . SVG Version: 6.00 Build 0)  -->
<svg version="1.1" id="Layer_1" xmlns="http://www.w3.org/2000/svg" xmlns:xlink="http://www.w3.org/1999/xlink" x="0px" y="0px"
	 viewBox="0 0 512 512" style="enable-background:new 0 0 512 512;" xml:space="preserve">
<g>
	<g>
		<g>
			<path d="M401.067,162.133c0,4.719-3.823,8.533-8.533,8.533c-4.71,0-8.533-3.814-8.533-8.533v-17.067h-17.067v17.067
				c0,4.719-3.823,8.533-8.533,8.533s-8.533-3.814-8.533-8.533v-17.067H332.8v17.067c0,4.719-3.823,8.533-8.533,8.533
				s-8.533-3.814-8.533-8.533v-17.067h-17.067v17.067c0,4.719-3.823,8.533-8.533,8.533s-8.533-3.814-8.533-8.533v-17.067h-17.067
				v17.067c0,4.719-3.823,8.533-8.533,8.533s-8.533-3.814-8.533-8.533v-17.067H230.4v17.067c0,4.719-3.823,8.533-8.533,8.533
				c-4.71,0-8.533-3.814-8.533-8.533v-17.067h-17.067v17.067c0,4.719-3.823,8.533-8.533,8.533s-8.533-3.814-8.533-8.533v-17.067
				h-17.067v17.067c0,4.719-3.823,8.533-8.533,8.533c-4.71,0-8.533-3.814-8.533-8.533v-17.067H128v17.067
				c0,4.719-3.823,8.533-8.533,8.533s-8.533-3.814-8.533-8.533v-17.067H93.867v145.067h42.667c4.71,0,8.533,3.814,8.533,8.533V332.8
				h51.2c4.71,0,8.533,3.814,8.533,8.533v25.6h102.4v-25.6c0-4.719,3.823-8.533,8.533-8.533h51.2v-34.133
				c0-4.719,3.823-8.533,8.533-8.533h42.667V145.067h-17.067V162.133z"/>
			<path d="M486.4,68.267H25.6c-14.114,0-25.6,11.486-25.6,25.6v324.267c0,14.114,11.486,25.6,25.6,25.6h460.8
				c14.114,0,25.6-11.486,25.6-25.6V93.867C512,79.753,500.514,68.267,486.4,68.267z M435.2,298.667
				c0,4.719-3.823,8.533-8.533,8.533H384v34.133c0,4.719-3.823,8.533-8.533,8.533h-51.2v25.6c0,4.719-3.823,8.533-8.533,8.533
				H196.267c-4.71,0-8.533-3.814-8.533-8.533v-25.6h-51.2c-4.71,0-8.533-3.814-8.533-8.533V307.2H85.333
				c-4.71,0-8.533-3.814-8.533-8.533V136.533c0-4.719,3.823-8.533,8.533-8.533h341.333c4.71,0,8.533,3.814,8.533,8.533V298.667z"/>
		</g>
	</g>
</g>
<g>
</g>
<g>
</g>
<g>
</g>
<g>
</g>
<g>
</g>
<g>
</g>
<g>
</g>
<g>
</g>
<g>
</g>
<g>
</g>
<g>
</g>
<g>
</g>
<g>
</g>
<g>
</g>
<g>
</g>
</svg>
